Coordinates
version=1
nRows=10
nColumns=40
inDegrees=yes

Units are S.I. units (second, meters, Newtons, ...)
Angles are in degrees.

endheader
time	pelvis_tilt	pelvis_list	pelvis_rotation	pelvis_tx	pelvis_ty	pelvis_tz	hip_flexion_r	hip_adduction_r	hip_rotation_r	knee_angle_r	knee_angle_r_beta	ankle_angle_r	subtalar_angle_r	mtp_angle_r	hip_flexion_l	hip_adduction_l	hip_rotation_l	knee_angle_l	knee_angle_l_beta	ankle_angle_l	subtalar_angle_l	mtp_angle_l	lumbar_extension	lumbar_bending	lumbar_rotation	arm_flex_r	arm_add_r	arm_rot_r	elbow_flex_r	pro_sup_r	wrist_flex_r	wrist_dev_r	arm_flex_l	arm_add_l	arm_rot_l	elbow_flex_l	pro_sup_l	wrist_flex_l	wrist_dev_l
      4.27000000	     -6.80487439	     -4.02102802	     -2.30719038	      0.78632216	      0.92085232	      0.49602667	     23.65613410	      1.06841842	    -11.93994418	     20.28735394	     20.28735394	      5.45140587	     -0.91333694	     -3.40739077	     10.81175957	     -8.10629737	     -4.16967384	     38.96287797	     38.96287797	     13.73127364	    -16.84106532	     -4.94383453	     -9.59643235	      7.35216639	      1.23375054	     -7.76510157	    -12.21979749	     -9.74721291	     28.98653705	     46.59002698	      0.00000000	      0.00000000	     14.04337143	    -12.18043510	     -8.75803342	     78.60072827	     47.36072913	      0.00000000	      0.00000000
      4.28314286	     -6.80374293	     -4.21573916	     -1.97615342	      0.78659003	      0.92139367	      0.49845853	     23.02186116	      1.37829442	    -12.20184664	     20.03236207	     20.03236207	      5.80301399	     -0.95786559	     -3.56556850	     12.62417313	     -8.64402372	     -3.46022694	     42.68713050	     42.68713050	     12.29246503	    -17.59758558	     -4.55140734	     -9.60102094	      7.50962292	      1.10316653	     -6.58767345	    -12.36583431	     -9.59809756	     30.03378917	     46.53837293	      0.00000000	      0.00000000	     13.47645759	    -11.84571727	     -8.43505378	     77.35252445	     47.32374231	      0.00000000	      0.00000000
      4.29628571	     -6.72523339	     -4.47930410	     -1.64218626	      0.78678705	      0.92192913	      0.50087295	     22.30160636	      1.75430390	    -12.53180570	     19.77596833	     19.77596833	      6.16830825	     -0.95181738	     -3.72209509	     14.40681874	     -9.22525205	     -2.69734507	     46.35394483	     46.35394483	     10.91766262	    -18.11389271	     -3.90800955	     -9.71242944	      7.72467073	      1.13336464	     -5.43215387	    -12.58494109	     -9.48370513	     30.97866969	     46.49615182	      0.00000000	      0.00000000	     12.95696457	    -11.43007571	     -8.15218867	     76.22827993	     47.28793869	      0.00000000	      0.00000000
      4.30942857	     -6.69318679	     -4.60541007	     -1.38060038	      0.78676460	      0.92242876	      0.50320154	     21.64872950	      2.00909882	    -12.77602275	     19.48444623	     19.48444623	      6.30037066	     -0.93873126	     -4.36057058	     16.42385584	     -9.43542416	     -1.67885554	     50.25662029	     50.25662029	     11.51878487	    -18.03550083	      2.26778579	     -9.76555401	      7.76930712	      1.79099071	     -5.52842130	    -13.21814100	     -7.96080569	     34.62958037	     46.20549228	      0.00000000	      0.00000000	     13.29697334	    -10.74863450	     -7.34447685	     73.15138512	     47.23743410	      0.00000000	      0.00000000
      4.32257143	     -6.63715178	     -4.80237249	     -1.13006668	      0.78667349	      0.92288104	      0.50567151	     20.99777789	      2.35581812	    -13.01389916	     19.25268731	     19.25268731	      6.60708066	     -0.91023145	     -4.47232963	     18.24213767	     -9.81805660	     -0.89726873	     53.50735204	     53.50735204	     10.79511461	    -18.25455277	      4.69128710	     -9.83603700	      7.82388608	      1.85836569	     -4.33181457	    -13.58729622	     -7.40528386	     36.14087638	     46.10498734	      0.00000000	      0.00000000	     12.92310185	    -10.29282781	     -7.35175452	     70.99044472	     47.22548676	      0.00000000	      0.00000000
      4.33571429	     -6.54583955	     -4.99509003	     -0.94375086	      0.78642854	      0.92337041	      0.50820430	     20.34783440	      2.71280608	    -13.20557081	     19.07030689	     19.07030689	      6.91232056	     -0.83658289	     -4.52568044	     19.87245717	    -10.26754541	     -0.33863765	     56.18263805	     56.18263805	      9.53504226	    -18.52395873	      5.17830948	    -10.03780548	      7.81638735	      2.05204163	     -2.79274560	    -13.85228881	     -7.40641996	     36.96345350	     46.08211322	      0.00000000	      0.00000000	     12.17316678	     -9.92836581	     -7.12871458	     70.08708266	     47.19251407	      0.00000000	      0.00000000
      4.34885714	     -6.56095717	     -5.08591628	     -0.70535349	      0.78598041	      0.92378101	      0.51051602	     19.79029708	      2.95693010	    -13.37312303	     18.81760432	     18.81760432	      7.25083902	     -0.77147307	     -4.41923948	     21.76473514	    -10.38564206	      0.48758729	     58.79146990	     58.79146990	     10.20558195	    -18.44208567	     10.24593110	    -10.01295981	      7.73326764	      2.24337952	     -2.04768086	    -14.43315907	     -6.30755028	     39.69689513	     45.90121680	      0.00000000	      0.00000000	     12.23844309	     -9.37454056	     -7.43713377	     66.27126383	     47.18047203	      0.00000000	      0.00000000
      4.36200000	     -6.52775487	     -5.18494099	     -0.50210107	      0.78542519	      0.92428261	      0.51291618	     19.19998063	      3.23794649	    -13.46450564	     18.57516305	     18.57516305	      7.51821886	     -0.80313605	     -4.34337206	     23.35139618	    -10.68668810	      0.94549955	     60.53664922	     60.53664922	      9.56538068	    -18.59549161	     10.91116485	    -10.11458375	      7.59019035	      2.02073841	     -0.29679897	    -14.61199498	     -6.22105942	     41.01657821	     45.85430958	      0.00000000	      0.00000000	     11.36979302	     -9.36810172	     -7.40008562	     64.49043583	     47.14730872	      0.00000000	      0.00000000
      4.37514286	     -6.49675553	     -5.24170936	     -0.28302032	      0.78470701	      0.92478808	      0.51516162	     18.62351976	      3.46879793	    -13.50438343	     18.33539236	     18.33539236	      7.79513225	     -0.89516989	     -4.19779755	     24.89453541	    -10.90289432	      1.37327134	     61.79770479	     61.79770479	      9.35312527	    -18.72079773	     11.89179760	    -10.22394079	      7.40289613	      1.86044520	      1.36360282	    -14.82407480	     -5.96890951	     42.57153432	     45.78970640	      0.00000000	      0.00000000	     10.75106557	     -9.24069558	     -7.63690536	     62.02250324	     47.12738986	      0.00000000	      0.00000000
      4.38828571	     -6.47908590	     -5.25335879	     -0.06932577	      0.78380876	      0.92535402	      0.51725276	     18.11790357	      3.64841035	    -13.49295942	     18.18681461	     18.18681461	      8.23546741	     -1.01411992	     -3.82233543	     26.40424473	    -11.01741953	      1.76259172	     62.54748797	     62.54748797	      9.81593419	    -18.76935481	     14.16695683	    -10.33022214	      7.16771408	      2.34276224	      2.33495351	    -15.56964206	     -4.92768072	     45.10952660	     45.64357005	      0.00000000	      0.00000000	     11.10951353	     -8.39818302	     -8.55475659	     57.92253531	     47.14963575	      0.00000000	      0.00000000
